<svg width="1128.449951171875" height="523" xmlns="http://www.w3.org/2000/svg"><style>
                text { font:18px serif;user-select:none; }
                rect { fill:#eee;stroke:#afafaf;stroke-width:1px; }
                line { stroke:#555;stroke-width:2;stroke-linecap:round; }
                circle { stroke:#555;stroke-width:2;fill:#fff; }
                path { stroke:#555;fill:#555;stroke-width:2; }
            </style><g><line x1="572" y1="124.5" x2="455" y2="190.5"></line><line x1="572" y1="124.5" x2="131" y2="192.5"></line><line x1="572" y1="124.5" x2="816" y2="191.5"></line><line x1="572" y1="124.5" x2="402" y2="396.5"></line><line x1="572" y1="124.5" x2="528" y2="194.5"></line><line x1="572" y1="124.5" x2="338" y2="192.5"></line><line x1="572" y1="124.5" x2="581" y2="396.5"></line><line x1="572" y1="124.5" x2="759" y2="396.5"></line><line x1="572" y1="124.5" x2="624" y2="193.5"></line><line x1="572" y1="124.5" x2="1040" y2="192.5"></line><line x1="572" y1="124.5" x2="216" y2="191.5"></line><line x1="131" y1="225.5" x2="165" y2="263.5"></line><line x1="131" y1="225.5" x2="90" y2="263.5"></line><line x1="816" y1="224.5" x2="722" y2="263.5"></line><line x1="816" y1="224.5" x2="802" y2="264.5"></line><line x1="816" y1="224.5" x2="896" y2="265.5"></line><line x1="402" y1="429.5" x2="450" y2="480.5"></line><line x1="402" y1="429.5" x2="346" y2="480.5"></line><line x1="528" y1="227.5" x2="584" y2="268.5"></line><line x1="528" y1="227.5" x2="476" y2="268.5"></line><line x1="338" y1="225.5" x2="378" y2="267.5"></line><line x1="338" y1="225.5" x2="294" y2="267.5"></line><line x1="1040" y1="225.5" x2="1084" y2="261.5"></line><line x1="1040" y1="225.5" x2="998" y2="261.5"></line></g><g><path visibility="hidden"></path><rect x="500" y="92" width="144.43333435058594" height="32"></rect><text x="508" y="114">Ucboard software</text><circle r="7" visibility="hidden"></circle></g><g><path visibility="hidden"></path><rect x="426" y="191" width="58" height="32"></rect><text x="434" y="213">LEDs</text><circle r="7" style="fill: rgb(136, 136, 136);" visibility="visible" cx="455" cy="190.5"></circle></g><g><path style="fill: none;" visibility="visible" d="M 131 225.5 L 151.00384578409478 247.85723940575298 A 30 30 0 0 1 108.99709110140206 245.89293995479807 Z"></path><rect x="101" y="193" width="61.11666488647461" height="32"></rect><text x="109" y="215">Motor</text><circle r="7" style="fill: rgb(136, 136, 136);" visibility="visible" cx="131" cy="192.5"></circle></g><g><path visibility="hidden"></path><rect x="70" y="264" width="41" height="32"></rect><text x="78" y="286">DC</text><circle r="7" visibility="hidden"></circle></g><g><path visibility="hidden"></path><rect x="133" y="264" width="64" height="32"></rect><text x="141" y="286">BLDC</text><circle r="7" visibility="hidden"></circle></g><g><path style="fill: none;" visibility="visible" d="M 816 224.5 L 842.6979975167063 238.18272372731195 A 30 30 0 0 1 788.2902810953861 235.9965855029781 Z"></path><rect x="696" y="192" width="241.86666870117188" height="32"></rect><text x="704" y="214">Serial communication interface</text><circle r="7" style="fill: rgb(136, 136, 136);" visibility="visible" cx="816" cy="191.5"></circle></g><g><path visibility="hidden"></path><rect x="697" y="264" width="51.016666412353516" height="32"></rect><text x="705" y="286">USB</text><circle r="7" visibility="hidden"></circle></g><g><path visibility="hidden"></path><rect x="767" y="265" width="71.01666641235352" height="32"></rect><text x="775" y="287">RS-232</text><circle r="7" visibility="hidden"></circle></g><g><path visibility="hidden"></path><rect x="853" y="266" width="86.98332977294922" height="32"></rect><text x="861" y="288">Bluetooth</text><circle r="7" visibility="hidden"></circle></g><g><path visibility="visible" d="M 402 429.5 L 422.5609409701497 451.3459997807841 A 30 30 0 0 1 379.8197285556364 449.69989006540254 Z"></path><rect x="322" y="397" width="160.4499969482422" height="32"></rect><text x="330" y="419">Speed measurement</text><circle r="7" style="fill: rgb(255, 255, 255);" visibility="visible" cx="402" cy="396.5"></circle></g><g><path visibility="hidden"></path><rect x="298" y="481" width="97.58333587646484" height="32"></rect><text x="306" y="503">Hall sensor</text><circle r="7" visibility="hidden"></circle></g><g><path visibility="hidden"></path><rect x="412" y="481" width="76.08333206176758" height="32"></rect><text x="420" y="503">Encoder</text><circle r="7" visibility="hidden"></circle></g><g><path visibility="hidden"></path><rect x="-8" y="-6" width="16" height="12"></rect><text x="312" y="559"></text><circle r="7" visibility="hidden"></circle></g><g><path visibility="hidden"></path><rect x="-8" y="-6" width="16" height="12"></rect><text x="788" y="338"></text><circle r="7" visibility="hidden"></circle></g><g><path style="fill: none;" visibility="visible" d="M 528 227.5 L 552.2058846046036 245.22216551408476 A 30 30 0 0 1 504.44192503116665 246.0746360331186 Z"></path><rect x="503" y="195" width="51" height="32"></rect><text x="511" y="217">IMU</text><circle r="7" style="fill: rgb(136, 136, 136);" visibility="visible" cx="528" cy="194.5"></circle></g><g><path visibility="hidden"></path><rect x="431" y="269" width="91.01667022705078" height="32"></rect><text x="439" y="291">MPU9250</text><circle r="7" visibility="hidden"></circle></g><g><path visibility="hidden"></path><rect x="537" y="269" width="95" height="32"></rect><text x="545" y="291">ICM20648</text><circle r="7" visibility="hidden"></circle></g><g><path visibility="hidden"></path><rect x="-8" y="-6" width="16" height="12"></rect><text x="1215" y="424"></text><circle r="7" visibility="hidden"></circle></g><g><path visibility="hidden"></path><rect x="-8" y="-6" width="16" height="12"></rect><text x="1312" y="431"></text><circle r="7" visibility="hidden"></circle></g><g><path style="fill: none;" visibility="visible" d="M 338 225.5 L 358.6896551724138 247.22413793103448 A 30 30 0 0 1 316.2993336756928 246.214272400475 Z"></path><rect x="268" y="193" width="141.56666564941406" height="32"></rect><text x="276" y="215">Ultrasonic sensor</text><circle r="7" style="fill: rgb(136, 136, 136);" visibility="visible" cx="338" cy="192.5"></circle></g><g><path visibility="hidden"></path><rect x="261" y="268" width="66.03333282470703" height="32"></rect><text x="269" y="290">SRF08</text><circle r="7" visibility="hidden"></circle></g><g><path visibility="hidden"></path><rect x="345" y="268" width="66.03333282470703" height="32"></rect><text x="353" y="290">SRF10</text><circle r="7" visibility="hidden"></circle></g><g><path visibility="hidden"></path><rect x="514" y="397" width="134.56666564941406" height="32"></rect><text x="522" y="419">Speed controller</text><circle r="7" style="fill: rgb(255, 255, 255);" visibility="visible" cx="581" cy="396.5"></circle></g><g><path visibility="hidden"></path><rect x="682" y="397" width="154.23333740234375" height="32"></rect><text x="690" y="419">Yaw rate controller</text><circle r="7" style="fill: rgb(255, 255, 255);" visibility="visible" cx="759" cy="396.5"></circle></g><g><path visibility="hidden"></path><rect x="-8" y="-6" width="16" height="12"></rect><text x="899" y="341"></text><circle r="7" visibility="hidden"></circle></g><g><path visibility="hidden"></path><rect x="568" y="194" width="113.48332977294922" height="32"></rect><text x="576" y="216">DAQ module</text><circle r="7" style="fill: rgb(136, 136, 136);" visibility="visible" cx="624" cy="193.5"></circle></g><g><path visibility="hidden"></path><rect x="-8" y="-6" width="16" height="12"></rect><text x="979" y="340"></text><circle r="7" visibility="hidden"></circle></g><g><path style="fill: none;" visibility="visible" d="M 1040 225.5 L 1063.2187189760996 244.49713370771786 A 30 30 0 0 1 1017.2223019290411 245.02374120367907 Z"></path><rect x="963" y="193" width="155.4499969482422" height="32"></rect><text x="971" y="215">Routine scheduling</text><circle r="7" style="fill: rgb(136, 136, 136);" visibility="visible" cx="1040" cy="192.5"></circle></g><g><path visibility="hidden"></path><rect x="962" y="262" width="72" height="32"></rect><text x="970" y="284">Custom</text><circle r="7" visibility="hidden"></circle></g><g><path visibility="hidden"></path><rect x="1054" y="262" width="60.599998474121094" height="32"></rect><text x="1062" y="284">RTOS</text><circle r="7" visibility="hidden"></circle></g><g><path visibility="hidden"></path><rect x="179" y="192" width="75.98333358764648" height="32"></rect><text x="187" y="214">Steering</text><circle r="7" style="fill: rgb(136, 136, 136);" visibility="visible" cx="216" cy="191.5"></circle></g><g><path visibility="hidden"></path><rect x="-8" y="-6" width="16" height="12"></rect><text x="1161" y="142"></text><circle r="7" visibility="hidden"></circle></g><g><path visibility="hidden"></path><rect x="-8" y="-6" width="16" height="12"></rect><text x="1286" y="395"></text><circle r="7" visibility="hidden"></circle></g><g><path visibility="hidden"></path><rect x="-8" y="-6" width="16" height="12"></rect><text x="712" y="332"></text><circle r="7" visibility="hidden"></circle></g><g><path visibility="hidden"></path><rect x="-8" y="-6" width="16" height="12"></rect><text x="1275" y="290"></text><circle r="7" visibility="hidden"></circle></g><g><path visibility="hidden"></path><rect x="-8" y="-6" width="16" height="12"></rect><text x="1420" y="92"></text><circle r="7" visibility="hidden"></circle></g></svg>